<svg width="46" height="45" viewBox="0 0 46 45" fill="none" xmlns="http://www.w3.org/2000/svg">
<path d="M23.1125 7.23594L5 9.42969V23.8156V38.2016L5.46406 38.1172C5.9 38.0469 14.2953 37.0344 32.2812 34.8828C37.1187 34.3063 41.2812 33.8 41.5344 33.7578L41.9844 33.6734V19.3438V5L41.6047 5.01407C41.3797 5.02813 33.0687 6.02657 23.1125 7.23594ZM40.8594 19.4703V32.675L39.7062 32.8297C39.0594 32.9141 31.4234 33.8422 22.7188 34.8828C14.0141 35.9234 6.72969 36.8094 6.50469 36.8516L6.125 36.9219L6.15312 23.675L6.19531 10.4281L10.625 9.89375C13.0578 9.59844 19.2875 8.85313 24.4766 8.22032C29.6656 7.60157 35.3187 6.9125 37.0625 6.68751C38.8062 6.47657 40.3672 6.29375 40.55 6.27969L40.8594 6.26563V19.4703Z" fill="white"/>
<path d="M38.4688 8.05157C37.3719 8.20626 37.2031 8.26251 37.2734 8.36095C37.3016 8.43126 36.7672 9.48595 36.0781 10.7094L34.7984 12.9453L34.8406 10.7234L34.8828 8.50158L33.9687 8.60001C33.4625 8.6422 33.0406 8.71251 33.0125 8.72657C32.9984 8.74064 32.9562 11.1453 32.9422 14.0703L32.914 19.3719L33.6172 19.2875C34.0109 19.2453 34.4469 19.2031 34.6016 19.2031C34.8828 19.2031 34.8969 19.1328 34.8406 17.7688C34.7844 16.4047 34.7984 16.3063 35.1781 15.5891C35.4031 15.1813 35.6281 14.8438 35.6703 14.8438C35.8109 14.8438 37.2031 18.1906 37.2031 18.5422C37.2031 18.8656 37.2031 18.8656 38.3703 18.725C39.0031 18.6547 39.5516 18.5844 39.5797 18.5563C39.6219 18.5281 39.5094 18.3594 39.3406 18.1766C39.0172 17.8391 36.9219 13.1141 36.9219 12.7344C36.9219 12.4953 38.7641 9.13439 39.3266 8.34689L39.6078 7.95314L39.2141 7.9672C39.0031 7.98126 38.6656 8.00939 38.4688 8.05157Z" fill="white"/>
<path d="M27.8516 9.31719L26.1641 9.52812V14.8578V20.2016L26.9375 20.1172C28.1891 19.9766 28.1891 19.9766 28.0484 19.3719C27.9078 18.7531 27.9641 16.25 28.1188 15.9969C28.175 15.9125 28.3719 15.8281 28.5547 15.8281C28.9203 15.8281 28.9203 15.8281 29.3984 17.8672C29.5391 18.4016 29.6375 19.0625 29.6234 19.3297V19.7938L30.2844 19.7094C30.65 19.6531 31.1141 19.5828 31.3109 19.5406L31.6906 19.4703L31.4375 18.6688C31.2969 18.2188 31.0719 17.3328 30.9313 16.7L30.6922 15.5469L31.1281 15.0828L31.5781 14.6188V12.2V9.76719L31.1984 9.42969C30.7344 9.02187 30.3547 9.00781 27.8516 9.31719ZM29.7219 12.4109L29.6797 13.9297L28.9344 14.0563C28.5266 14.1266 28.1609 14.1406 28.1188 14.0984C27.9641 13.9438 27.9078 11.8063 28.0484 11.4266C28.1891 11.075 28.3719 11.0047 29.4406 10.9344C29.75 10.9062 29.7641 10.9203 29.7219 12.4109Z" fill="white"/>
<path d="M22.0859 10.0063C20.4125 10.2031 20.3984 10.2172 19.9484 10.7375L19.4844 11.2578V15.7016V20.1594L19.9625 20.5109L20.4406 20.8766L22.1703 20.6656C23.9 20.4688 23.9141 20.4547 24.3781 19.9484L24.8281 19.4422V14.9984V10.5547L24.35 10.1609C24.0828 9.95 23.8438 9.79531 23.8156 9.79531C23.7875 9.80938 23.0141 9.90781 22.0859 10.0063ZM23 15.1953C23 19.0625 23.0422 18.9219 21.8891 18.9219H21.3266L21.2844 15.5328C21.2563 13.3953 21.2984 12.1016 21.3828 12.0313C21.5656 11.8766 21.9875 11.7922 22.55 11.7641L23 11.75V15.1953Z" fill="white"/>
<path d="M17.1219 10.5828C16.6578 10.625 16.5312 10.6953 16.5875 10.8359C16.6578 11.0328 15.5187 17.3188 15.3781 17.4453C15.2937 17.5438 14.1406 12.0172 14.1406 11.4828C14.1406 10.9906 14.0844 10.9766 12.7625 11.1453C12.1297 11.2156 12.0312 11.2578 12.1016 11.4828C12.1719 11.7078 11.2156 16.9672 10.9484 17.8672C10.8781 18.1063 9.75312 13.0859 9.6125 11.8906C9.57031 11.5391 9.57031 11.5391 8.55781 11.6516L7.53125 11.7781L7.74219 12.2563C8.07969 13.0578 9.80937 21.2 9.75312 21.7063L9.69687 22.1703L10.4703 22.0859C12.0031 21.9172 12.0312 21.9031 12.0031 21.4109C11.9609 20.7078 13.0578 15.0688 13.1844 15.3641C13.3672 15.8 14.2812 20.6516 14.2812 21.1438V21.6078L15.0969 21.5234C16.4469 21.3828 16.5734 21.3266 16.4891 21.0172C16.4469 20.8625 16.8125 18.725 17.3047 16.2781C18.0922 12.3688 18.3172 11.4547 18.5984 10.6531C18.6687 10.4844 18.4437 10.4703 17.1219 10.5828Z" fill="white"/>
<path d="M13.6485 24.4906C12.2563 24.6594 11.0188 24.8141 10.8922 24.8141C10.7235 24.8281 10.625 25.0672 10.5125 25.7703C10.4281 26.2906 10.3719 26.7406 10.4 26.7547C10.4281 26.7828 10.5969 26.7406 10.7797 26.6703C10.9766 26.6 11.4406 26.5297 11.8203 26.5016L12.5235 26.4453V30.8609V35.2625L13.2266 35.1781C13.6203 35.1359 14.0563 35.0937 14.211 35.0937C14.4922 35.0937 14.4922 35.0094 14.45 30.6781L14.4078 26.2625L14.7172 26.1641C14.886 26.1078 15.3922 26.0656 15.8563 26.0516C16.6297 26.0516 16.686 26.0234 16.6156 25.7563C16.5875 25.5875 16.5031 25.1656 16.461 24.7859C16.4047 24.4203 16.3203 24.1391 16.2641 24.1391C16.2219 24.1531 15.0406 24.3078 13.6485 24.4906Z" fill="white"/>
<path d="M8.79688 25.0672C8.6 25.0953 8.2625 25.1516 8.02344 25.1797L7.60156 25.25V30.5656V35.8813L8.30469 35.7828C8.69844 35.7266 9.10625 35.6703 9.21875 35.6703C9.40156 35.6563 9.42969 34.9672 9.42969 30.3125C9.42969 26.825 9.3875 24.9688 9.28906 24.9828C9.21875 24.9969 8.99375 25.025 8.79688 25.0672Z" fill="white"/>
</svg>
